# xmcd CD database file
#
# Track frame offsets:
#	150
#	15150
#	29169
#	44837
#	57175
#	72722
#	85935
#	102447
#	110190
#	126510
#	151155
#
# Disc length: 3521 seconds
#
# Revision: 1
# Processed by: cddbd v1.5.2PL0 Copyright (c) Steve Scherf et al.
# Submitted via: CDex 1.51
#
DISCID=a00dbf0b
DTITLE=Luther Wright and the Wrongs - Roger's Waltz
DYEAR=1999
DGENRE=Country
TTITLE0=Truck Driver
TTITLE1=Frozen Alone
TTITLE2=Celia
TTITLE3=$'s to doughnuts
TTITLE4=The War Nurse
TTITLE5=Remember
TTITLE6=Roger's Waltz
TTITLE7=Good Night
TTITLE8=The Reward
TTITLE9=Ernie
TTITLE10=The 7 Seas
EXTD=YEAR: 1999
EXTT0=
EXTT1=
EXTT2=
EXTT3=
EXTT4=
EXTT5=
EXTT6=
EXTT7=
EXTT8=
EXTT9=
EXTT10=
PLAYORDER=
